:FULLY-SPECIFIED
:FORCE-ALL-JOINTS-BE-3DOF
:DEGREES
1223
root -0.767335 14.608 -17.1445 11.7058 20.4219 3.27928
lfemur 12.5873 -0.451601 -9.71414
ltibia 30.5662 -0 0
lfoot -0.141543 28.0445 0.00109005
ltoes -29.8808 0 0
rfemur -60.0671 -16.0918 21.2726
rtibia 78.219 -0 0
rfoot -18.8672 -21.7438 0.0551335
rtoes 3.96326 -0 0
lowerback 13.8814 0.486813 -3.98601
upperback -3.68613 -0.116738 -0.259353
thorax -11.8551 0.227718 2.00105
lowerneck -1.04044 -8.69946 -9.92025
upperneck 0.265765 -11.6347 10.2278
head 1.4767 -5.77638 4.38905
lclavicle 1.22998e-14 -5.26779e-15 0
lhumerus -60.2425 -29.2575 114.025
lradius 91.2848 -0 0
lwrist 27.0941 0 0
lhand -22.9552 24.1133 0.235843
lfingers 7.12502 -0 0
lthumb 3.48625 54.0221 0.228116
rclavicle 1.22998e-14 -5.26779e-15 0
rhumerus 65.001 2.94109 -27.3894
rradius 93.2997 -0 0
rwrist -10.8271 0 0
rhand -30.2038 -33.579 -0.123926
rfingers 7.12502 -0 0
rthumb -3.5141 -63.503 -0.119833
1224
root -0.776111 14.6355 -16.9926 11.3898 19.647 2.74037
lfemur 9.91607 -0.178621 -9.86298
ltibia 34.8705 -0 0
lfoot -0.143858 26.8289 0.00137424
ltoes -30.1322 0 0
rfemur -58.7369 -15.2062 21.6622
rtibia 77.6844 -0 0
rfoot -19.3465 -22.0414 0.069484
rtoes 2.9301 -0 0
lowerback 13.8185 0.492147 -3.52049
upperback -3.66637 -0.00657531 -0.12639
thorax -11.7924 0.251538 1.85794
lowerneck -1.08659 -8.47739 -9.71518
upperneck 0.389614 -11.3386 9.98423
head 1.47695 -5.62757 4.30949
lclavicle 1.22998e-14 -5.26779e-15 0
lhumerus -58.3118 -30.5883 114.56
lradius 89.419 -0 0
lwrist 23.2436 0 0
lhand -23.6126 23.1868 0.297314
lfingers 7.12502 -0 0
lthumb 2.85139 53.0941 0.287571
rclavicle 1.22998e-14 -5.26779e-15 0
rhumerus 65.1988 3.85558 -27.4765
rradius 93.7495 -0 0
rwrist -12.3276 0 0
rhand -29.677 -34.1872 -0.156197
rfingers 7.12502 -0 0
rthumb -3.00528 -64.112 -0.151037
1225
root -0.784538 14.6645 -16.843 11.0598 18.8094 2.1679
lfemur 7.03857 0.107252 -10.0373
ltibia 39.5058 -0 0
lfoot -0.146358 25.5199 0.00162529
ltoes -30.403 0 0
rfemur -57.3034 -14.2625 22.1037
rtibia 77.1088 -0 0
rfoot -19.8628 -22.362 0.082153
rtoes 1.81747 -0 0
lowerback 13.7508 0.498462 -3.01916
upperback -3.64481 0.11201 0.0168432
thorax -11.725 0.277365 1.70384
lowerneck -1.13537 -8.23805 -9.49467
upperneck 0.521413 -11.0192 9.72295
head 1.47699 -5.46732 4.22383
lclavicle 1.22998e-14 -5.26779e-15 0
lhumerus -56.2183 -32.0381 115.086
lradius 87.4096 -0 0
lwrist 19.0968 0 0
lhand -24.3216 22.1883 0.351612
lfingers 7.12502 -0 0
lthumb 2.16671 52.0941 0.340088
rclavicle 1.22998e-14 -5.26779e-15 0
rhumerus 65.4106 4.84073 -27.5668
rradius 94.2338 -0 0
rwrist -13.9436 0 0
rhand -29.1092 -34.8425 -0.184692
rfingers 7.12502 -0 0
rthumb -2.45697 -64.7681 -0.17859
1226
root -0.792593 14.6945 -16.6966 10.7229 17.9224 1.57249
lfemur 4.00196 0.398939 -10.2365
ltibia 44.3958 -0 0
lfoot -0.149 24.1389 0.00182818
ltoes -30.6887 0 0
rfemur -55.7893 -13.2788 22.5936
rtibia 76.5014 -0 0
rfoot -20.4075 -22.7004 0.0923858
rtoes 0.6437 -0 0
lowerback 13.6794 0.505767 -2.4903
upperback -3.62174 0.237051 0.167996
thorax -11.6539 0.304808 1.54132
lowerneck -1.18579 -7.98536 -9.26241
upperneck 0.658693 -10.6815 9.44844
head 1.47677 -5.29826 4.13348
lclavicle 1.22998e-14 -5.26779e-15 0
lhumerus -53.9895 -33.5843 115.58
lradius 85.2898 -0 0
lwrist 14.7223 0 0
lhand -25.0704 21.1343 0.395489
lfingers 7.12502 -0 0
lthumb 1.44353 51.0384 0.382524
rclavicle 1.22998e-14 -5.26779e-15 0
rhumerus 65.6326 5.88037 -27.6583
rradius 94.7447 -0 0
rwrist -15.6484 0 0
rhand -28.5099 -35.5341 -0.207711
rfingers 7.12502 -0 0
rthumb -1.87824 -65.4605 -0.200848
1227
root -0.800253 14.7251 -16.5542 10.3856 16.9997 0.964201
lfemur 0.853442 0.689679 -10.459
ltibia 49.4641 -0 0
lfoot -0.151742 22.7075 0.00197119
ltoes -30.9848 0 0
rfemur -54.2172 -12.2729 23.1272
rtibia 75.872 -0 0
rfoot -20.9721 -23.0512 0.0995961
rtoes -0.572859 0 0
lowerback 13.6055 0.514032 -1.94216
upperback -3.59749 0.366587 0.324714
thorax -11.5803 0.333464 1.3729
lowerneck -1.23692 -7.72324 -9.02207
upperneck 0.799083 -10.3309 9.16511
head 1.47626 -5.12304 4.03987
lclavicle 1.22998e-14 -5.26779e-15 0
lhumerus -51.6526 -35.2028 116.024
lradius 83.0928 -0 0
lwrist 10.1882 0 0
lhand -25.8473 20.0414 0.426417
lfingers 7.12502 -0 0
lthumb 0.693286 49.9439 0.412436
rclavicle 1.22998e-14 -5.26779e-15 0
rhumerus 65.8614 6.95828 -27.749
rradius 95.2742 -0 0
rwrist -17.4153 0 0
rhand -27.8886 -36.2511 -0.223933
rfingers 7.12502 -0 0
rthumb -1.27816 -66.1784 -0.216533
1228
root -0.807493 14.756 -16.4168 10.0538 16.055 0.352508
lfemur -2.35974 0.973211 -10.7021
ltibia 54.6343 -0 0
lfoot -0.154543 21.2474 0.00204645
ltoes -31.2868 0 0
rfemur -52.6096 -11.262 23.6984
rtibia 75.2299 -0 0
rfoot -21.5481 -23.4091 0.103389
rtoes -1.81387 0 0
lowerback 13.5302 0.523192 -1.38302
upperback -3.57238 0.498658 0.484642
thorax -11.5053 0.362919 1.20113
lowerneck -1.2879 -7.45564 -8.77728
upperneck 0.94032 -9.97254 8.87729
head 1.47545 -4.9443 3.9444
lclavicle 1.22998e-14 -5.26779e-15 0
lhumerus -49.2348 -36.8678 116.401
lradius 80.8516 -0 0
lwrist 5.56302 0 0
lhand -26.6403 18.9262 0.44269
lfingers 7.12502 -0 0
lthumb -0.0724858 48.827 0.428176
rclavicle 1.22998e-14 -5.26779e-15 0
rhumerus 66.0937 8.05822 -27.8373
rradius 95.8144 -0 0
rwrist -19.2177 0 0
rhand -27.2546 -36.9826 -0.232467
rfingers 7.12502 -0 0
rthumb -0.665873 -66.9109 -0.224785
1229
root -0.814289 14.7868 -16.2852 9.73235 15.1023 -0.253647
lfemur -5.59023 1.24396 -10.962
ltibia 59.8299 -0 0
lfoot -0.157358 19.78 0.00205016
ltoes -31.5903 0 0
rfemur -50.9892 -10.2623 24.2993
rtibia 74.5846 -0 0
rfoot -22.127 -23.7688 0.103576
rtoes -3.061 0 0
lowerback 13.4546 0.533137 -0.821135
upperback -3.54678 0.631308 0.64542
thorax -11.4301 0.392745 1.02855
lowerneck -1.33795 -7.18651 -8.53169
upperneck 1.08026 -9.61171 8.58928
head 1.47433 -4.76468 3.84849
lclavicle 1.22998e-14 -5.26779e-15 0
lhumerus -46.7636 -38.5527 116.698
lradius 78.5993 -0 0
lwrist 0.915046 0 0
lhand -27.4373 17.8053 0.443493
lfingers 7.12502 -0 0
lthumb -0.842192 47.7045 0.428952
rclavicle 1.22998e-14 -5.26779e-15 0
rhumerus 66.326 9.16392 -27.9218
rradius 96.3572 -0 0
rwrist -21.029 0 0
rhand -26.6174 -37.7178 -0.232888
rfingers 7.12502 -0 0
rthumb -0.0505119 -67.647 -0.225192
1230
root -0.820619 14.8169 -16.1603 9.42572 14.1558 -0.845828
lfemur -8.79057 1.4972 -11.2341
ltibia 64.9746 -0 0
lfoot -0.160145 18.3271 0.0019828
ltoes -31.8909 0 0
rfemur -49.3791 -9.28926 24.9205
rtibia 73.9456 -0 0
rfoot -22.7001 -24.1249 0.100181
rtoes -4.2959 0 0
lowerback 13.3799 0.543714 -0.264771
upperback -3.52106 0.762586 0.804684
thorax -11.3557 0.422502 0.85771
lowerneck -1.38633 -6.91981 -8.28887
upperneck 1.21687 -9.25374 8.30527
head 1.47292 -4.58682 3.75353
lclavicle 1.22998e-14 -5.26779e-15 0
lhumerus -44.2683 -40.2295 116.905
lradius 76.3691 -0 0
lwrist -3.68736 0 0
lhand -28.2264 16.6956 0.428926
lfingers 7.12502 -0 0
lthumb -1.60422 46.5931 0.414863
rclavicle 1.22998e-14 -5.26779e-15 0
rhumerus 66.5552 10.2591 -28.0012
rradius 96.8948 -0 0
rwrist -22.8225 0 0
rhand -25.9865 -38.4458 -0.225249
rfingers 7.12502 -0 0
rthumb 0.558772 -68.3758 -0.217806
1231
root -0.826459 14.8461 -16.0431 9.13757 13.2298 -1.41604
lfemur -11.9132 1.72917 -11.5126
ltibia 69.9919 -0 0
lfoot -0.162861 16.9101 0.00184906
ltoes -32.184 0 0
rfemur -47.8027 -8.35728 25.5512
rtibia 73.3225 -0 0
rfoot -23.2591 -24.4722 0.0934387
rtoes -5.50023 0 0
lowerback 13.3071 0.554728 0.277809
upperback -3.49562 0.890546 0.960068
thorax -11.2832 0.451736 0.691131
lowerneck -1.43238 -6.65952 -8.05241
upperneck 1.34823 -8.90399 8.02939
head 1.47126 -4.41337 3.66095
lclavicle 1.22998e-14 -5.26779e-15 0
lhumerus -41.7805 -41.87 117.017
lradius 74.1941 -0 0
lwrist -8.17585 0 0
lhand -28.9955 15.6136 0.400004
lfingers 7.12502 -0 0
lthumb -2.34699 45.5094 0.386892
rclavicle 1.22998e-14 -5.26779e-15 0
rhumerus 66.778 11.3275 -28.0746
rradius 97.419 -0 0
rwrist -24.5717 0 0
rhand -25.3714 -39.1556 -0.210079
rfingers 7.12502 -0 0
rthumb 1.15284 -69.0865 -0.203138
1232
root -0.831784 14.8739 -15.9345 8.87099 12.3389 -1.95664
lfemur -14.9104 1.93715 -11.7914
ltibia 74.8056 -0 0
lfoot -0.165462 15.5507 0.00165767
ltoes -32.4652 0 0
rfemur -46.284 -7.47962 26.179
rtibia 72.7246 -0 0
rfoot -23.7953 -24.8053 0.0837863
rtoes -6.65565 0 0
lowerback 13.2374 0.565942 0.798343
upperback -3.47089 1.01324 1.1092
thorax -11.2137 0.479981 0.531351
lowerneck -1.47553 -6.40962 -7.82587
upperneck 1.47255 -8.56786 7.76573
head 1.46941 -4.24697 3.57214
lclavicle 1.22998e-14 -5.26779e-15 0
lhumerus -39.3354 -43.446 117.036
lradius 72.1075 -0 0
lwrist -12.4821 0 0
lhand -29.7328 14.576 0.358614
lfingers 7.12502 -0 0
lthumb -3.05897 44.4703 0.34686
rclavicle 1.22998e-14 -5.26779e-15 0
rhumerus 66.9913 12.3527 -28.1413
rradius 97.9219 -0 0
rwrist -26.2498 0 0
rhand -24.7814 -39.8364 -0.188366
rfingers 7.12502 -0 0
rthumb 1.72256 -69.7681 -0.182142
